# xmcd CD database file
#
# Track frame offsets:
#	150
#	17614
#	32954
#	67820
#	79852
#	102989
#	123280
#	144341
#	162853
#	192900
#	218571
#	243761
#
# Disc length: 3532 seconds
#
# Revision: 0
# Processed by: cddbd v1.5.2PL0 Copyright (c) Steve Scherf et al.
# Submitted via: CDex 1.51
#
DISCID=940dca0c
DTITLE=Various Artist - Jazz Piano
DYEAR=2014
DGENRE=Jazz
TTITLE0='Round Midnight - Thelonious Monk
TTITLE1=Fly Me To The Moon - Eldar
TTITLE2=Waltz For Debbie - Bill Evans
TTITLE3=Autumn Leaves - Ahmad Jamal
TTITLE4=When I Fall In Love - Oscar Peterson
TTITLE5=Body And Soul - Oscar Peterson
TTITLE6=What is This Thing Called Love - Martin Solal
TTITLE7=Stadtmitte - Rusconi
TTITLE8=Georgia On My Mind - The Dave Brubeck Quartet
TTITLE9=Beyound heaven - Bruno Böhmer Camacho
TTITLE10=Little Romance - Triosence
TTITLE11=Solitude - Duke Ellington and His Orchestra
EXTD=YEAR: 2014
EXTT0=
EXTT1=
EXTT2=
EXTT3=
EXTT4=
EXTT5=
EXTT6=
EXTT7=
EXTT8=
EXTT9=
EXTT10=
EXTT11=
PLAYORDER=
